<svg xmlns="http://www.w3.org/2000/svg" width="1080" height="560" viewBox="0 0 1080 560">
<rect width="100%" height="100%" fill="white"/>
<text x="75" y="25" font-family="Arial" font-size="19">Validation RMSE: confidence_score</text>
<line x1="75" y1="400.0" x2="1055" y2="400.0" stroke="#e2e8f0"/>
<text x="65" y="404.0" text-anchor="end" font-family="Arial" font-size="12" fill="#475569">0.00</text>
<line x1="75" y1="340.0" x2="1055" y2="340.0" stroke="#e2e8f0"/>
<text x="65" y="344.0" text-anchor="end" font-family="Arial" font-size="12" fill="#475569">0.20</text>
<line x1="75" y1="280.0" x2="1055" y2="280.0" stroke="#e2e8f0"/>
<text x="65" y="284.0" text-anchor="end" font-family="Arial" font-size="12" fill="#475569">0.40</text>
<line x1="75" y1="220.0" x2="1055" y2="220.0" stroke="#e2e8f0"/>
<text x="65" y="224.0" text-anchor="end" font-family="Arial" font-size="12" fill="#475569">0.60</text>
<line x1="75" y1="160.0" x2="1055" y2="160.0" stroke="#e2e8f0"/>
<text x="65" y="164.0" text-anchor="end" font-family="Arial" font-size="12" fill="#475569">0.80</text>
<line x1="75" y1="100.0" x2="1055" y2="100.0" stroke="#e2e8f0"/>
<text x="65" y="104.0" text-anchor="end" font-family="Arial" font-size="12" fill="#475569">1.00</text>
<line x1="75" y1="40.0" x2="1055" y2="40.0" stroke="#e2e8f0"/>
<text x="65" y="44.0" text-anchor="end" font-family="Arial" font-size="12" fill="#475569">1.20</text>
<rect x="98.3" y="113.0" width="76.0" height="287.0" fill="#64748b"/>
<text x="136.2" y="107.0" text-anchor="middle" font-family="Arial" font-size="11">0.957</text>
<text transform="translate(136.2,412) rotate(55)" text-anchor="start" font-family="Arial" font-size="12" fill="#334155">wavlm: full audio mean std</text>
<rect x="220.8" y="110.7" width="76.0" height="289.3" fill="#2563eb"/>
<text x="258.8" y="104.7" text-anchor="middle" font-family="Arial" font-size="11">0.964</text>
<text transform="translate(258.8,412) rotate(55)" text-anchor="start" font-family="Arial" font-size="12" fill="#334155">wavlm: speech only mean std</text>
<rect x="343.3" y="111.3" width="76.0" height="288.7" fill="#0f766e"/>
<text x="381.2" y="105.3" text-anchor="middle" font-family="Arial" font-size="11">0.962</text>
<text transform="translate(381.2,412) rotate(55)" text-anchor="start" font-family="Arial" font-size="12" fill="#334155">wavlm: speech only plus pause</text>
<rect x="465.8" y="111.0" width="76.0" height="289.0" fill="#d97706"/>
<text x="503.8" y="105.0" text-anchor="middle" font-family="Arial" font-size="11">0.963</text>
<text transform="translate(503.8,412) rotate(55)" text-anchor="start" font-family="Arial" font-size="12" fill="#334155">wavlm: speech only plus duration</text>
<rect x="588.3" y="113.0" width="76.0" height="287.0" fill="#64748b"/>
<text x="626.2" y="107.0" text-anchor="middle" font-family="Arial" font-size="11">0.957</text>
<text transform="translate(626.2,412) rotate(55)" text-anchor="start" font-family="Arial" font-size="12" fill="#334155">hubert: full audio mean std</text>
<rect x="710.8" y="109.5" width="76.0" height="290.5" fill="#2563eb"/>
<text x="748.8" y="103.5" text-anchor="middle" font-family="Arial" font-size="11">0.968</text>
<text transform="translate(748.8,412) rotate(55)" text-anchor="start" font-family="Arial" font-size="12" fill="#334155">hubert: speech only mean std</text>
<rect x="833.3" y="110.5" width="76.0" height="289.5" fill="#0f766e"/>
<text x="871.2" y="104.5" text-anchor="middle" font-family="Arial" font-size="11">0.965</text>
<text transform="translate(871.2,412) rotate(55)" text-anchor="start" font-family="Arial" font-size="12" fill="#334155">hubert: speech only plus pause</text>
<rect x="955.8" y="110.1" width="76.0" height="289.9" fill="#d97706"/>
<text x="993.8" y="104.1" text-anchor="middle" font-family="Arial" font-size="11">0.966</text>
<text transform="translate(993.8,412) rotate(55)" text-anchor="start" font-family="Arial" font-size="12" fill="#334155">hubert: speech only plus duration</text>
</svg>